<svg xmlns="http://www.w3.org/2000/svg" viewBox="0 0 400 125"><style>.st0{fill:#fff}.st23{fill:url(#SVGID_21_)}.st23,.st24,.st25{fill-rule:evenodd;clip-rule:evenodd}.st24{fill:url(#SVGID_22_)}.st25{fill:url(#SVGID_23_)}.st26{fill:url(#SVGID_24_)}.st26,.st27,.st28,.st29,.st30,.st31{fill-rule:evenodd;clip-rule:evenodd}.st27{fill:url(#SVGID_25_)}.st28{fill:url(#SVGID_26_)}.st29{fill:url(#SVGID_27_)}.st30{fill:url(#SVGID_28_)}.st31{fill:url(#SVGID_29_)}.st32{fill:url(#SVGID_30_)}.st32,.st33,.st34,.st35,.st36,.st37{fill-rule:evenodd;clip-rule:evenodd}.st33{fill:url(#SVGID_31_)}.st34{fill:url(#SVGID_32_)}.st35{fill:url(#SVGID_33_)}.st36{fill:url(#SVGID_34_)}.st37{fill:url(#SVGID_35_)}.st38{fill:url(#SVGID_36_)}.st38,.st39,.st40,.st41,.st42,.st43{fill-rule:evenodd;clip-rule:evenodd}.st39{fill:url(#SVGID_37_)}.st40{fill:url(#SVGID_38_)}.st41{fill:url(#SVGID_39_)}.st42{fill:url(#SVGID_40_)}.st43{fill:url(#SVGID_41_)}.st44{fill:url(#SVGID_42_)}.st44,.st45,.st46,.st47,.st48,.st49{fill-rule:evenodd;clip-rule:evenodd}.st45{fill:url(#SVGID_43_)}.st46{fill:url(#SVGID_44_)}.st47{fill:url(#SVGID_45_)}.st48{fill:url(#SVGID_46_)}.st49{fill:url(#SVGID_47_)}.st50{fill:url(#SVGID_48_)}.st50,.st51,.st52,.st53,.st54,.st55{fill-rule:evenodd;clip-rule:evenodd}.st51{fill:url(#SVGID_49_)}.st52{fill:url(#SVGID_50_)}.st53{fill:url(#SVGID_51_)}.st54{fill:url(#SVGID_52_)}.st55{fill:url(#SVGID_53_)}.st56{fill:url(#SVGID_54_)}.st56,.st57,.st58,.st59,.st60,.st61{fill-rule:evenodd;clip-rule:evenodd}.st57{fill:url(#SVGID_55_)}.st58{fill:url(#SVGID_56_)}.st59{fill:url(#SVGID_57_)}.st60{fill:url(#SVGID_58_)}.st61{fill:url(#SVGID_59_)}.st62{fill:url(#SVGID_60_)}.st62,.st63,.st64,.st65,.st66,.st67{fill-rule:evenodd;clip-rule:evenodd}.st63{fill:#323232}.st64{fill:url(#SVGID_61_)}.st65{fill:url(#SVGID_62_)}.st66{fill:url(#SVGID_63_)}.st67{fill:url(#SVGID_64_)}.st68{fill:url(#SVGID_65_)}.st68,.st69,.st70,.st71,.st72,.st73{fill-rule:evenodd;clip-rule:evenodd}.st69{fill:url(#SVGID_66_)}.st70{fill:url(#SVGID_67_)}.st71{fill:url(#SVGID_68_)}.st72{fill:url(#SVGID_69_)}.st73{fill:url(#SVGID_70_)}.st74{fill:url(#SVGID_71_)}.st74,.st75,.st76,.st77,.st78,.st79{fill-rule:evenodd;clip-rule:evenodd}.st75{fill:url(#SVGID_72_)}.st76{fill:url(#SVGID_73_)}.st77{fill:url(#SVGID_74_)}.st78{fill:url(#SVGID_75_)}.st79{fill:url(#SVGID_76_)}.st80{fill:url(#SVGID_77_)}.st80,.st81,.st82,.st83,.st84,.st85{fill-rule:evenodd;clip-rule:evenodd}.st81{fill:url(#SVGID_78_)}.st82{fill:url(#SVGID_79_)}.st83{fill:url(#SVGID_80_)}.st84{fill:url(#SVGID_81_)}.st85{fill:url(#SVGID_82_)}.st86{fill:url(#SVGID_83_)}.st86,.st87,.st88,.st89,.st90,.st91{fill-rule:evenodd;clip-rule:evenodd}.st87{fill:url(#SVGID_84_)}.st88{fill:url(#SVGID_85_)}.st89{fill:url(#SVGID_86_)}.st90{fill:url(#SVGID_87_)}.st91{fill:url(#SVGID_88_)}.st92{fill:url(#SVGID_89_)}.st92,.st93,.st94,.st95,.st96,.st97{fill-rule:evenodd;clip-rule:evenodd}.st93{fill:url(#SVGID_90_)}.st94{fill:url(#SVGID_91_)}.st95{fill:url(#SVGID_92_)}.st96{fill:url(#SVGID_93_)}.st97{fill:url(#SVGID_94_)}.st100,.st101,.st102,.st103,.st98,.st99{fill-rule:evenodd;clip-rule:evenodd}.st98{fill:url(#SVGID_95_)}.st99{fill:url(#SVGID_96_)}.st100{fill:url(#SVGID_97_)}.st101{fill:url(#SVGID_98_)}.st102{fill:url(#SVGID_99_)}.st103{fill:url(#SVGID_100_)}</style><path d="M130.7 113.5h-13V95.8h13v3.8h-8.4v3h8.1v3.8h-8.1v3.2h8.4v3.9zM91.4 106v-5.5H94c1.5 0 2.7 1.2 2.7 2.7 0 1.5-1.2 2.7-2.7 2.7h-2.6zm5.3 7.4 4.7.1c0-2-.8-3.8-2-5.1 1.3-1.3 2-3.1 2-5.1 0-4.1-3.3-7.5-7.5-7.5h-7.2v17.7h4.6v-3.1H94c1.5 0 2.7 1.4 2.7 3zm66.4-7.4c0 1.1-.1 2-.3 2.7-.3 1.2-.9 2.2-1.9 3.2-1.4 1.4-3.3 2-5.7 2-2.4 0-4.3-.7-5.7-2.1-.7-.7-1.2-1.6-1.5-2.7-.2-.8-.3-1.8-.3-3.1V95.8h4.6v11.3c.1 1.2.6 2 1.6 2.5.4.2.9.3 1.4.3 1.1 0 2-.4 2.5-1.2.4-.6.6-1.7.6-3.4v-9.6h4.6V106zm34.2 7.5h-4.6l-8.5-10.8v10.8h-4.6V95.8h4.6l8.5 10.8V95.8h4.6v17.7zm22.6 0h-4.6V95.8h4.6v17.7zm33.4-8.9c0 1.8-.6 3.5-1.7 5.1-1.1 1.6-2.5 2.7-4.3 3.3-.9.3-1.8.5-2.8.5h-6.8V95.8h6.8c1.7 0 3.2.5 4.6 1.4 1.4.9 2.5 2.1 3.2 3.6.7 1.2 1 2.5 1 3.8zm-4.7 0c0-1.2-.3-2.3-1-3.2-.9-1.2-2.3-1.8-4.1-1.8h-1v10.1h1c1.8 0 3.2-.6 4.1-1.8.6-1 1-2 1-3.3zm64.6 3c0 3-1.3 4.9-3.9 5.8-.9.3-1.9.5-2.9.5-2.2 0-4.3-.7-6.1-2l2-3.7c1.4 1.3 2.7 1.9 4 1.9.6 0 1.1-.1 1.5-.4.5-.3.7-.8.7-1.3s-.3-1-.8-1.3c-.4-.3-1.1-.5-2-.8-1.1-.3-1.9-.6-2.1-.7-.5-.2-.9-.4-1.2-.7-.9-.8-1.4-2-1.4-3.5 0-1.6.5-3 1.5-4.1 1.1-1.3 2.7-1.9 4.6-1.9 1.9 0 3.8.5 5.6 1.4l-1.8 3.6c-1-.8-2-1.2-3-1.2-.5 0-.9.1-1.3.4-.4.3-.7.7-.7 1.1 0 .5.3.9.9 1.2.3.2 1 .4 2.3.8 1.6.5 2.8 1.1 3.5 2 .3.8.6 1.7.6 2.9zm-34.9-.7-1.9-5.6-1.9 5.6h3.8zm7.2 6.6h-4.9l-1.1-3.1h-6.3l-1.2 3.1h-4.9l6.8-17.7h5l6.6 17.7z" style="fill-rule:evenodd;clip-rule:evenodd;fill:#213167"/><linearGradient id="SVGID_1_" x1="199.938" x2="200.081" y1="126.659" y2="118.465" gradientUnits="userSpaceOnUse"><stop offset="0" stop-color="#B21218"/><stop offset=".7" stop-color="#B63447"/><stop offset=".95" stop-color="#D1711C"/></linearGradient><path d="M74.6 120.7h250.8v3.8H74.6z" style="fill-rule:evenodd;clip-rule:evenodd;fill:url(#SVGID_1_)"/><path d="M230.7 70.5c3.2 3.5 5.8 7.6 7.7 12l2.5 6h-30.3l-1.2-1c-2.7-2.2-6-3.4-9.5-3.4s-6.8 1.2-9.5 3.4l-1.2 1H159l2.5-6c1.9-4.4 4.5-8.5 7.7-12-.7-.8-1.4-1.6-2-2.4-3.7.2-7.3.5-11 .8-5.9.5-12.3 1-18.1.1-5.9-.9-11.7-2.8-16.5-6.3-2.7-2-4.7-4.1-6.7-6.7-.3-.4-.6-.8-1-1.2-.2-.1-.4-.1-.6-.2-1.1-.3-2.3-.7-3.4-1.2-.5-.2-.9-.4-1.4-.6-2.4-1.1-4.6-2.4-6.7-4-.7-.6-1.4-1.1-2-1.8-1-1-1.9-2-2.8-3.1-.6-.8-1.1-1.5-1.8-2.3-.5-.1-1-.3-1.5-.4-2.6-.8-5.2-1.9-7.5-3.3-.9-.5-1.8-1.1-2.6-1.8-1.4-1-2.7-2.2-3.9-3.5-.8-.9-1.6-1.9-2.3-2.9-.3-.4-.7-.8-1-1.2-.5-.1-1.1-.3-1.6-.5-2.1-.6-4-1.4-6-2.5-2.5-1.3-4.8-2.9-6.8-4.8-1.4-1.4-2.5-2.7-3.7-4.3-.4-.4-.9-.9-1.3-1.4-.9-1-1.3-2.4-.8-3.7.7-1.8 2.3-2.1 3.9-2.2 23.9-1.6 79-2.3 102 15.7C168.7 10.5 183.2.6 200 .6c16.8 0 31.3 9.9 37.9 24.2 23-18 78.1-17.3 102-15.7 1.7.1 3.2.4 3.9 2.2.5 1.3.1 2.7-.8 3.7-.4.5-.9 1-1.3 1.6-1.2 1.6-2.3 2.9-3.7 4.3-2 1.9-4.3 3.6-6.8 4.8-1.9 1-3.9 1.8-6 2.5-.5.2-1.1.3-1.6.5-.4.4-.7.8-1 1.2-.8 1-1.5 1.9-2.3 2.9-1.2 1.3-2.5 2.5-3.9 3.5-.9.6-1.7 1.2-2.6 1.8-2.4 1.4-4.9 2.5-7.5 3.3-.5.2-1 .3-1.5.4-.6.7-1.2 1.5-1.8 2.3-.8 1.1-1.8 2.1-2.8 3.1-.6.6-1.3 1.2-2 1.8-2.1 1.7-4.3 2.9-6.7 4-.5.2-.9.4-1.4.6-1.1.4-2.2.8-3.4 1.2-.2.1-.4.1-.6.2-.3.4-.7.8-1 1.2-2 2.7-4 4.8-6.7 6.7-4.9 3.5-10.6 5.4-16.5 6.3-5.9.9-12.2.4-18.1-.1-3.7-.3-7.3-.6-11-.8-.7.6-1.4 1.4-2.1 2.2" style="fill-rule:evenodd;clip-rule:evenodd;fill:#fff"/><linearGradient id="SVGID_2_" x1="7843.842" x2="7841.57" y1="48.842" y2="63.187" gradientTransform="matrix(-1 0 0 1 8103.129 0)" gradientUnits="userSpaceOnUse"><stop offset="0" stop-color="#848484"/><stop offset=".8" stop-color="#fff"/><stop offset="1" stop-color="#fff"/></linearGradient><path d="M236.8 61.9c9.6.7 18.8 1.9 25.9 1.1 14-1.6 17.9-7.6 19.8-9.4.7-.7 1.3-1.1 1.6-1.3.1-.1.1-.2.2-.2-1.3.3-2.7.6-4.1.8-10.2 1.5-23.5-1.6-37.2-1.1-.8 0-1.5.1-2.3.1-.9 3.4-2.2 6.8-3.9 10" style="fill-rule:evenodd;clip-rule:evenodd;fill:url(#SVGID_2_)"/><linearGradient id="SVGID_3_" x1="7835.267" x2="7851.915" y1="67.97" y2="49.153" gradientTransform="matrix(-1 0 0 1 8103.129 0)" gradientUnits="userSpaceOnUse"><stop offset="0" stop-color="#848484"/><stop offset="1" stop-color="#fff"/></linearGradient><path d="M284.1 52.2c-.3.2-.8.6-1.6 1.3-1.9 1.8-5.7 7.9-19.8 9.4-7.1.8-16.3-.4-25.9-1.1-.6 1.1-1.2 2.1-1.8 3.1 9.8.6 18.9 2 26.4.9 14-2.1 19.2-9.3 21.1-11.8l.1-.2c.7-.8 1.2-1.3 1.5-1.6" style="fill-rule:evenodd;clip-rule:evenodd;fill:url(#SVGID_3_)"/><linearGradient id="SVGID_4_" x1="7832.338" x2="7829.861" y1="35.581" y2="51.223" gradientTransform="matrix(-1 0 0 1 8103.129 0)" gradientUnits="userSpaceOnUse"><stop offset="0" stop-color="#848484"/><stop offset=".8" stop-color="#fff"/><stop offset="1" stop-color="#fff"/></linearGradient><path d="M241.3 48.5c.5 0 1.1 0 1.6-.1 13.8-.4 28.4 2.6 38.6 1.4 14-1.6 17.8-7.6 19.6-9.4.7-.7 1.3-1.1 1.6-1.3.1-.1.2-.2.2-.3l-.2.1h-.9l-.3.1h-.4l-.3.1h-.4l-.4.1h-.1c-.2 0-.3.1-.5.1h-.2c-.2 0-.4.1-.6.1-10.2 1.5-23.5-1.6-37.2-1.1h-6.6c-4.4.3-8.9.7-13.3 1.3 0 .7.1 1.4.1 2.1.1 2.7 0 4.7-.3 6.8" style="fill-rule:evenodd;clip-rule:evenodd;fill:url(#SVGID_4_)"/><linearGradient id="SVGID_5_" x1="7814.384" x2="7811.897" y1="12.404" y2="28.107" gradientTransform="matrix(-1 0 0 1 8103.129 0)" gradientUnits="userSpaceOnUse"><stop offset="0" stop-color="#848484"/><stop offset=".8" stop-color="#fff"/><stop offset="1" stop-color="#fff"/></linearGradient><path d="M339.6 12.3c-33.6-2.3-81.3-.2-100.4 15.6.4 1.1.8 2.3 1.1 3.4.3-.1.6-.2.8-.2 9.5-5.7 22.9-8.3 39.6-8.9 13.8-.4 28.4 2.6 38.6 1.4 14-1.6 17.8-7.6 19.6-9.4.7-.7 1.3-1.1 1.6-1.3.5-.6.3-.5-.9-.6" style="fill-rule:evenodd;clip-rule:evenodd;fill:url(#SVGID_5_)"/><linearGradient id="SVGID_6_" x1="7822.818" x2="7820.334" y1="23.901" y2="39.579" gradientTransform="matrix(-1 0 0 1 8103.129 0)" gradientUnits="userSpaceOnUse"><stop offset="0" stop-color="#848484"/><stop offset=".8" stop-color="#fff"/><stop offset="1" stop-color="#fff"/></linearGradient><path d="M241.4 31c-.4.1-.7.2-1.1.3.5 2 .9 4 1.2 6.1 6.1-1.2 12.9-1.8 20.4-2.1 13.8-.4 28.4 2.6 38.6 1.4 14-1.6 17.8-7.6 19.6-9.4.7-.7 1.3-1.1 1.6-1.3.1-.1.2-.2.2-.3l-.2.1H320l-.3.1h-.4l-.4.1h-.1l-.5.1h-.2c-.2 0-.4.1-.6.1-10.2 1.5-23.5-1.6-37.2-1.1h-7.9C262.3 26.6 252 28 242 30.8h-.1l-.5.2z" style="fill-rule:evenodd;clip-rule:evenodd;fill:url(#SVGID_6_)"/><linearGradient id="SVGID_7_" x1="7811.465" x2="7831.464" y1="48.534" y2="17.738" gradientTransform="matrix(-1 0 0 1 8103.129 0)" gradientUnits="userSpaceOnUse"><stop offset="0" stop-color="#848484"/><stop offset=".565" stop-color="#fff"/><stop offset=".752" stop-color="#fff"/><stop offset="1" stop-color="#AEAEAE"/></linearGradient><path d="M321.6 26c-.3.2-.8.6-1.6 1.3-1.9 1.8-5.7 7.8-19.6 9.4-10.2 1.1-24.8-1.9-38.6-1.4-7.5.2-14.3.9-20.4 2.1.1.9.2 1.9.2 2.8 6.7-.9 13.4-1.4 20.1-1.6 13.8-.5 27 2.6 37.2 1.1 14-2.1 19.1-9.2 21-11.7l.1-.2c.8-.9 1.3-1.4 1.6-1.8" style="fill-rule:evenodd;clip-rule:evenodd;fill:url(#SVGID_7_)"/><linearGradient id="SVGID_8_" x1="7800.311" x2="7822.911" y1="40.448" y2="5.648" gradientTransform="matrix(-1 0 0 1 8103.129 0)" gradientUnits="userSpaceOnUse"><stop offset="0" stop-color="#848484"/><stop offset=".5" stop-color="#fff"/><stop offset=".65" stop-color="#fff"/><stop offset="1" stop-color="#848484"/></linearGradient><path d="M340.5 12.9c-.3.2-.8.6-1.6 1.3-1.9 1.8-5.7 7.8-19.6 9.4-10.2 1.1-24.8-1.9-38.6-1.4-16.7.5-30.1 3.1-39.7 8.9 12.9-3.7 26.3-5.1 39.7-5.6 13.8-.5 27 2.6 37.2 1.1 14-2.1 19.1-9.2 21-11.7l.1-.2c.8-1 1.3-1.5 1.5-1.8" style="fill-rule:evenodd;clip-rule:evenodd;fill:url(#SVGID_8_)"/><linearGradient id="SVGID_9_" x1="7823.755" x2="7839.104" y1="57.358" y2="33.723" gradientTransform="matrix(-1 0 0 1 8103.129 0)" gradientUnits="userSpaceOnUse"><stop offset="0" stop-color="#848484"/><stop offset=".82" stop-color="#fff"/><stop offset="1" stop-color="#fff"/></linearGradient><path d="M302.7 39.2c-.3.2-.8.6-1.6 1.3-1.9 1.8-5.7 7.8-19.6 9.4-10.2 1.1-24.8-1.9-38.6-1.4-.6 0-1.1 0-1.6.1l-.6 3.3c.8 0 1.5-.1 2.3-.1 13.8-.5 27 2.6 37.2 1.1 14-2.1 19.1-9.2 21-11.7l.1-.2c.6-1 1.1-1.5 1.4-1.8" style="fill-rule:evenodd;clip-rule:evenodd;fill:url(#SVGID_9_)"/><linearGradient id="SVGID_10_" x1="140.712" x2="138.44" y1="48.842" y2="63.187" gradientUnits="userSpaceOnUse"><stop offset="0" stop-color="#848484"/><stop offset=".8" stop-color="#fff"/><stop offset="1" stop-color="#fff"/></linearGradient><path d="M163.2 61.9c-9.6.7-18.8 1.9-25.9 1.1-14-1.6-17.9-7.6-19.8-9.4-.7-.7-1.3-1.1-1.6-1.3-.1-.1-.1-.2-.2-.2 1.3.3 2.7.6 4.1.8 10.2 1.5 23.5-1.6 37.2-1.1.8 0 1.5.1 2.3.1.9 3.4 2.2 6.8 3.9 10" style="fill-rule:evenodd;clip-rule:evenodd;fill:url(#SVGID_10_)"/><linearGradient id="SVGID_11_" x1="132.137" x2="148.785" y1="67.97" y2="49.153" gradientUnits="userSpaceOnUse"><stop offset="0" stop-color="#848484"/><stop offset="1" stop-color="#fff"/></linearGradient><path d="M115.9 52.2c.3.2.8.6 1.6 1.3 1.9 1.8 5.7 7.9 19.8 9.4 7.1.8 16.3-.4 25.9-1.1.6 1.1 1.2 2.1 1.8 3.1-9.8.6-18.9 2-26.4.9-14-2.1-19.2-9.3-21.1-11.8l-.1-.2c-.7-.8-1.2-1.3-1.5-1.6" style="fill-rule:evenodd;clip-rule:evenodd;fill:url(#SVGID_11_)"/><linearGradient id="SVGID_12_" x1="129.209" x2="126.731" y1="35.581" y2="51.223" gradientUnits="userSpaceOnUse"><stop offset="0" stop-color="#848484"/><stop offset=".8" stop-color="#fff"/><stop offset="1" stop-color="#fff"/></linearGradient><path d="M158.7 48.5c-.5 0-1.1 0-1.6-.1-13.8-.4-28.4 2.6-38.6 1.4-14-1.6-17.8-7.6-19.6-9.4-.7-.7-1.3-1.1-1.6-1.3-.1-.1-.2-.2-.2-.3l.2.1h.9l.3.1h.4l.3.1h.4l.4.1h.1c.2 0 .3.1.5.1h.2c.2 0 .4.1.6.1 10.2 1.5 23.5-1.6 37.2-1.1h6.6c4.4.3 8.9.7 13.3 1.3 0 .7-.1 1.4-.1 2.1-.1 2.7 0 4.7.3 6.8" style="fill-rule:evenodd;clip-rule:evenodd;fill:url(#SVGID_12_)"/><linearGradient id="SVGID_13_" x1="111.255" x2="108.767" y1="12.404" y2="28.107" gradientUnits="userSpaceOnUse"><stop offset="0" stop-color="#848484"/><stop offset=".8" stop-color="#fff"/><stop offset="1" stop-color="#fff"/></linearGradient><path d="M60.4 12.3c33.6-2.3 81.3-.2 100.4 15.6-.4 1.1-.8 2.3-1.1 3.4-.3-.1-.6-.2-.8-.2-9.5-5.7-22.9-8.3-39.6-8.9-13.8-.4-28.4 2.6-38.6 1.4C66.7 22 62.9 16 61 14.2c-.7-.7-1.3-1.1-1.6-1.3-.4-.6-.2-.5 1-.6" style="fill-rule:evenodd;clip-rule:evenodd;fill:url(#SVGID_13_)"/><linearGradient id="SVGID_14_" x1="119.688" x2="117.205" y1="23.901" y2="39.579" gradientUnits="userSpaceOnUse"><stop offset="0" stop-color="#848484"/><stop offset=".8" stop-color="#fff"/><stop offset="1" stop-color="#fff"/></linearGradient><path d="M158.6 31c.4.1.7.2 1.1.3-.5 2-.9 4-1.2 6.1-6.1-1.2-12.9-1.8-20.4-2.1-13.8-.4-28.4 2.6-38.6 1.4-14-1.6-17.8-7.6-19.6-9.4-.7-.7-1.3-1.1-1.6-1.3-.1-.1-.2-.2-.2-.3l.2.1H80l.3.1h.4l.4.1h.1l.5.1h.2c.2 0 .4.1.6.1 10.2 1.5 23.5-1.6 37.2-1.1h7.9c10.3.7 20.6 2.2 30.6 4.9h.1l.3 1z" style="fill-rule:evenodd;clip-rule:evenodd;fill:url(#SVGID_14_)"/><linearGradient id="SVGID_15_" x1="108.336" x2="128.335" y1="48.534" y2="17.738" gradientUnits="userSpaceOnUse"><stop offset="0" stop-color="#848484"/><stop offset=".565" stop-color="#fff"/><stop offset=".752" stop-color="#fff"/><stop offset="1" stop-color="#AEAEAE"/></linearGradient><path d="M78.4 26c.3.2.8.6 1.6 1.3 1.9 1.8 5.7 7.8 19.6 9.4 10.2 1.1 24.8-1.9 38.6-1.4 7.5.2 14.3.9 20.4 2.1-.1.9-.2 1.9-.2 2.8-6.7-.9-13.4-1.4-20.1-1.6-13.8-.5-27 2.6-37.2 1.1-14-2.1-19.1-9.2-21-11.7l-.1-.2c-.8-.9-1.3-1.4-1.6-1.8" style="fill-rule:evenodd;clip-rule:evenodd;fill:url(#SVGID_15_)"/><linearGradient id="SVGID_16_" x1="97.181" x2="119.781" y1="40.448" y2="5.648" gradientUnits="userSpaceOnUse"><stop offset="0" stop-color="#848484"/><stop offset=".5" stop-color="#fff"/><stop offset=".65" stop-color="#fff"/><stop offset="1" stop-color="#848484"/></linearGradient><path d="M59.5 12.9c.3.2.8.6 1.6 1.3C63 16 66.8 22 80.7 23.6c10.2 1.1 24.8-1.9 38.6-1.4 16.7.5 30.1 3.1 39.7 8.9-12.9-3.7-26.3-5.1-39.7-5.6-13.8-.5-27 2.6-37.2 1.1-14-2.1-19.1-9.2-21-11.7l-.1-.2c-.8-1-1.3-1.5-1.5-1.8" style="fill-rule:evenodd;clip-rule:evenodd;fill:url(#SVGID_16_)"/><linearGradient id="SVGID_17_" x1="120.626" x2="135.975" y1="57.358" y2="33.723" gradientUnits="userSpaceOnUse"><stop offset="0" stop-color="#848484"/><stop offset=".82" stop-color="#fff"/><stop offset="1" stop-color="#fff"/></linearGradient><path d="M97.3 39.2c.3.2.8.6 1.6 1.3 1.9 1.8 5.7 7.8 19.6 9.4 10.2 1.1 24.8-1.9 38.6-1.4.6 0 1.1 0 1.6.1l.6 3.3c-.8 0-1.5-.1-2.3-.1-13.8-.5-27 2.6-37.2 1.1-14-2.1-19.1-9.2-21-11.7l-.1-.2c-.6-1-1.1-1.5-1.4-1.8" style="fill-rule:evenodd;clip-rule:evenodd;fill:url(#SVGID_17_)"/><linearGradient id="SVGID_18_" x1="200.01" x2="200.01" y1="79.629" y2="4.88" gradientUnits="userSpaceOnUse"><stop offset="0" stop-color="#1E2A5B"/><stop offset="1" stop-color="#273B7C"/></linearGradient><path d="M197.9 23.3c-9.5 1.1-16.9 9.1-16.9 18.9 0 9.8 7.4 17.8 16.9 18.9v18.5c-19.7-1.1-35.3-17.4-35.3-37.4s15.6-36.3 35.3-37.4v18.5zm4.2 37.9c9.5-1.1 16.9-9.1 16.9-18.9 0-9.8-7.4-17.8-16.9-18.9V4.9c19.7 1.1 35.3 17.4 35.3 37.4s-15.6 36.3-35.3 37.4V61.2z" style="fill-rule:evenodd;clip-rule:evenodd;fill:url(#SVGID_18_)"/><linearGradient id="SVGID_19_" x1="197.88" x2="165.52" y1="72.737" y2="72.737" gradientUnits="userSpaceOnUse"><stop offset="0" stop-color="#1E2A5B"/><stop offset="1" stop-color="#273B7C"/></linearGradient><path d="M197.9 79.8c-3.8.4-7.3 2-10.1 4.3h-22.3c5.4-12.8 17.8-22 32.4-22.8v18.5z" style="fill-rule:evenodd;clip-rule:evenodd;fill:url(#SVGID_19_)"/><linearGradient id="SVGID_20_" x1="202.139" x2="234.499" y1="72.737" y2="72.737" gradientUnits="userSpaceOnUse"><stop offset="0" stop-color="#1E2A5B"/><stop offset="1" stop-color="#273B7C"/></linearGradient><path d="M212.2 84.1c-2.8-2.3-6.3-3.9-10.1-4.3V61.3c14.6.8 26.9 10 32.4 22.8h-22.3z" style="fill-rule:evenodd;clip-rule:evenodd;fill:url(#SVGID_20_)"/></svg>