<svg xmlns="http://www.w3.org/2000/svg" data-name="Camada 1" viewBox="0 0 400 125"><path d="M189.16 9.27v32.3s31.58-3 53 12.11c17.59 12.49 32 20.44 62.44 19.49v-31s-32.17 1.32-51.28-10.79c-19.32-13.85-28-22.11-64.16-22.11Z" style="fill:#a2cfa1"/><path d="M13.14 50.2v40.26c0 4.9 1.63 7.88 3.07 9.51a12.91 12.91 0 0 0 10.19 4.42A12.89 12.89 0 0 0 36.58 100c1.44-1.63 3.08-4.61 3.08-9.51V50.2h12.49v39.2c0 6.06-1 12.2-4.81 17.1-4.61 6.06-12.68 9.23-20.94 9.23s-16.34-3.17-20.95-9.23c-3.84-4.9-4.8-11-4.8-17.1V50.2Zm79.55 64.09V50.2l47.65 37.88V50.2h12.49v64.09l-47.65-38v38ZM205.86 50.2v64.09h-12.49V50.2Zm78.49 54.54h-25.84l-5.67 9.55h-13.55l32.09-64.09 32.09 64.09H290Zm-3.65-11.16-9.13-23.06-9.12 23.06Zm118.65-11.29c0 19.51-14 33.44-34.2 33.44s-34.21-13.93-34.21-33.44 14-33.53 34.21-33.53 34.2 14.03 34.2 33.53Zm-12.87 0c0-13-8.84-22.19-21.33-22.19s-21.33 9.22-21.33 22.19 8.84 22.1 21.33 22.1 21.33-9.13 21.33-22.1Z" style="fill:#156f42"/></svg>