<svg xmlns="http://www.w3.org/2000/svg" viewBox="0 0 400 125"><path d="M21.16 68.66h5.67v-9.2c0-.76-.61-1.37-1.37-1.37H2.58s-1.57.39-1.57 1.37v26.41c0 .76.61 1.37 1.37 1.37h23.09c.76 0 1.37-.61 1.37-1.37v-8.41h-5.67v4.3s-.2 1.96-2.15 1.96H8.25a1.947 1.947 0 0 1-1.37-2.15V63.76c-.11-1.07.66-2.04 1.74-2.15.14-.01.28-.01.41 0h9.39c1.07-.11 2.04.66 2.15 1.74.01.14.01.28 0 .41v4.89h.59m17.81 18.6L49.14 58.1h11.15l9.98 29.15h-7.04L55.4 62.99a.984.984 0 0 0-1.37 0L46.2 87.25h-7.24ZM75.36 58.1v4.89h9.98v24.26h7.24V63.18h9.98V58.1h-27.2zm32.29 29.15 10.17-29.15h11.15l9.98 29.15h-7.04l-7.83-24.26a.984.984 0 0 0-1.37 0l-7.83 24.26h-7.24Zm43.43-29.15h22.7a.58.58 0 0 1 .78.28c.08.16.08.35 0 .51v17.02c0 .43-.35.78-.78.78h-4.3l5.67 10.76h-7.04l-6.46-12.91h5.09c1.19 0 2.15-.96 2.15-2.15v-9.2c0-1.19-.96-2.15-2.15-2.15h-9.39v26.22h-6.26V58.11Zm36.98-.79h6.26v30.07h-6.26zm19.96 0v29.94h5.09V64.16l15.65 23.09h8.61V57.31h-5.09v22.9l-15.84-22.9h-8.42zm49.31 4.31v9.39h18.59v3.52h-18.59v9.2h18.59v3.52h-25.24V57.31h25.43v4.31h-18.78m32.09-4.31v29.94h5.09V64.16l15.65 23.09h8.61V57.31h-5.09v22.9l-15.85-22.9h-8.41zm42.85 0h27.78v6.46h-7.04s.39-2.74-1.96-2.93h-9.2c-.75-.11-1.44.41-1.55 1.16-.01.07-.01.14-.01.21v7.83c0 .76.61 1.37 1.37 1.37h18.39v15.65h-27.78v-5.48h7.04s-.59 2.74 2.15 2.74h10.17c.76 0 1.37-.61 1.37-1.37v-6.26c.11-1.07-.66-2.04-1.74-2.15-.14-.01-.28-.01-.41 0h-18.59V57.32Zm47.94 4.31v9.39h18.58v3.52h-18.58v9.2h18.58v3.52h-25.24V57.31h25.24v4.31h-18.78" style="fill:#1f1f1f"/><path d="M67.93 37.55h131.49v5.22H67.93z" style="fill:#da0000"/><path d="M199.41 37.55H330.9v5.22H199.41z" style="fill:#5392da"/></svg>