<svg xmlns="http://www.w3.org/2000/svg" id="Camada_1" data-name="Camada 1" viewBox="0 0 281.25 125"><defs><style>.cls-2{fill:#fdfdfd}</style></defs><path d="M0 124.93V.07A1.68 1.68 0 0 1 .74 0h279.77a1.68 1.68 0 0 1 .74.06v124.87a1.68 1.68 0 0 1-.74.06H.74a1.68 1.68 0 0 1-.74-.06Z" style="fill:#48806f"/><path d="M165.19 67.31a32.43 32.43 0 0 0 .72-4.06c.8-8-4.9-15.08-11.38-17.12A33.63 33.63 0 0 0 142.35 45c-3.91.21-7.8.81-11.73.7A49.31 49.31 0 0 1 117 43.35a1.11 1.11 0 0 0-1.35.34c-1.34 1.45-2.73 2.86-4.15 4.33 1.69.61 3.34 1.09 5 1.53a57.5 57.5 0 0 0 18.33 1.88c3-.17 6-.49 9.08-.53a16.09 16.09 0 0 1 9.89 3 11.76 11.76 0 0 1 3.2 15.41c-.11.2-.19.4-.46.48a65.27 65.27 0 0 1-8.03 1.21c.5-.43 1-.8 1.39-1.21a9.4 9.4 0 0 0 3.26-6.94c0-3.2-1.72-5.37-4.52-6.71a18.78 18.78 0 0 0-8.44-1.54 34.73 34.73 0 0 0-7 .75 1 1 0 0 0-.57.23l-5.59 5.78c1-.22 2.14-.52 3.32-.75a32.91 32.91 0 0 1 9.54-.71 6.62 6.62 0 0 1 4.2 1.82 3 3 0 0 1 .24 4.26 8.54 8.54 0 0 1-3.12 2.3 23.45 23.45 0 0 1-9.75 2.09 52.81 52.81 0 0 1-27.13-6.69 33.37 33.37 0 0 1-9.16-7.06A15.63 15.63 0 0 1 91 46.4a15.5 15.5 0 0 1 3.74-10 30.81 30.81 0 0 1 8.53-7.13c.32-.19.49-.15.72.14 5.4 6.59 12.47 10.1 20.7 11.59a55.5 55.5 0 0 0 14.1.53 74.46 74.46 0 0 1 12.49-.3c9 .86 15.19 5.5 18.54 13.84a16.89 16.89 0 0 1 .82 9.37 1.17 1.17 0 0 1-.78 1c-1.51.63-3.01 1.29-4.67 1.87Z" class="cls-2"/><path d="M177.57 60.89a23.66 23.66 0 0 0-.29-5.81C176 48.19 172 43.23 166 39.73a33.07 33.07 0 0 0-14.89-4.34 94.39 94.39 0 0 0-12.81.35c-6.26.43-12.42 0-18.32-2.34a23.27 23.27 0 0 1-9.53-6.95c-.35-.42-.29-.55.21-.74a72.79 72.79 0 0 1 16.18-4.05 86.47 86.47 0 0 1 19.16-.47c9 .77 17.64 2.68 25.71 6.8a32 32 0 0 1 11.12 8.74 15.35 15.35 0 0 1 3.48 9.48 15.53 15.53 0 0 1-3.6 9.79 27.16 27.16 0 0 1-5.14 4.89ZM35.53 99.15c1.06-1.14 2.07-2.21 3.06-3.3.26-.29.44-.17.68 0A8.38 8.38 0 0 0 45 97.7a6.66 6.66 0 0 0 2.7-.7 2.93 2.93 0 0 0 1.08-.86c.56-.73.4-1.36-.47-1.67s-2-.69-3.05-1a11.56 11.56 0 0 1-2.65-1.15 2.61 2.61 0 0 1-1.15-3.43 7.17 7.17 0 0 1 2.21-3 15.42 15.42 0 0 1 7.71-3.36 24.77 24.77 0 0 1 11.32.55l.5.18-2.2 2.56c-.76.83-.75.8-1.77.29a9 9 0 0 0-5.08-1.21 4.09 4.09 0 0 0-2.46 1c-.81.76-.71 1.35.32 1.71 1.33.48 2.68.88 4 1.31a7.72 7.72 0 0 1 2.84 1.58 2 2 0 0 1 .51 1.63 4.54 4.54 0 0 1-1.13 2.46 13 13 0 0 1-7.46 5.08 24.17 24.17 0 0 1-14.55-.28Zm134.62 1.15c1.12-1.62 1.91-3.29 2.82-4.9 1.76-3.15 3.56-6.29 5.21-9.5a1.64 1.64 0 0 1 1.84-1c1.56.07 3.12 0 4.68 0a.73.73 0 0 1 .77.5c.67 1.28 1.46 2.5 2.21 3.74l3 5c.26-.08.3-.31.39-.48l4.28-7.72c.13-1 .8-1 1.58-1h2.48l-3.51 6.31c-1.48 2.68-3 5.33-4.41 8.07a1.6 1.6 0 0 1-1.82 1c-1.66-.07-3.33 0-5 0a.53.53 0 0 1-.59-.39 10.63 10.63 0 0 0-.93-1.64c-1.42-2.33-2.84-4.66-4.32-7.07l-1.26 2.24c-1.09 2-2.27 3.88-3.22 5.91a1.41 1.41 0 0 1-1.68 1c-.78-.11-1.62-.07-2.52-.07Zm42.62-15.41c-1.14 1.77-2 3.56-3 5.29q-2.79 5-5.52 10a7 7 0 0 1-4.43 3.4 18.81 18.81 0 0 1-9.19.21c-.53-.11-.54-.27-.28-.68a17.6 17.6 0 0 0 .92-1.58c.16-.3.33-.34.65-.24a4.36 4.36 0 0 0 2.06.21 3.18 3.18 0 0 0 2.51-1.69c2.59-4.66 5.21-9.31 7.72-14a1.45 1.45 0 0 1 1.58-.91h6.25Zm-85.34 0c-.48.87-.92 1.65-1.35 2.44-.1.18-.22.2-.42.18-1.57-.17-3.15 0-4.73-.09a.57.57 0 0 0-.59.36c-2.14 3.9-4.34 7.78-6.42 11.72a1.31 1.31 0 0 1-1.44.82h-7.02c2.31-4.15 4.59-8.27 6.89-12.39.21-.38.18-.5-.28-.48-1.61 0-3.23-.07-4.92.09l1.33-2.43c.16-.3.44-.19.67-.19h18.28Zm-28.7 9.3c1.61-2.93 3.21-5.72 4.67-8.59a1.13 1.13 0 0 1 1.25-.72h2.77c-2.18 3.93-4.37 7.83-6.51 11.75a19.19 19.19 0 0 0-1.81 3.52c-.06.2-.23.14-.36.14h-6.13c-.17 0-.32 0-.42-.19-1.1-2.1-2.47-4.1-3.71-6.21-.51-.87-1-1.72-1.6-2.63a6.37 6.37 0 0 0-.83 1.36c-1.23 2.2-2.53 4.37-3.63 6.64a1.68 1.68 0 0 1-1.88 1.06H69.17a24.07 24.07 0 0 0 .34-3.55c0-.29-.11-.35-.37-.35h-5.88a.85.85 0 0 0-.66.31c-1.17 1.17-2.5 2.18-3.58 3.45a.44.44 0 0 1-.39.14h-4c1.59-1.14 2.79-2.51 4.2-3.65 1.23-1 2.34-2.11 3.5-3.18 2.76-2.54 5.55-5 8.23-7.64a3.09 3.09 0 0 1 2.53-1c1.4.07 2.82 0 4.23 0 .49 0 .65 0 .6.64-.12 1.69-.08 3.4-.1 5.11 0 2.84-.06 5.67-.08 8.51 0 .35-.1.88.24 1s.52-.4.69-.71c2.51-4.52 5-9 7.48-13.58a1.49 1.49 0 0 1 1.63-.95c1.67.06 3.33 0 5 0 .32 0 .43.11.59.4.59 1.11 1.25 2.18 1.9 3.26 1.15 1.86 2.28 3.71 3.46 5.66Zm-29.46-.11c.2 0 .37 0 .4-.27.12-1.33.25-2.65.39-4.15l-4.58 4.42Zm60.57 6.51a16.85 16.85 0 0 1-5.74-.78c-2.51-.94-3.47-2.92-2.58-5.44a13.42 13.42 0 0 1 7.48-7.81 23.52 23.52 0 0 1 9.51-1.94 18.79 18.79 0 0 1 6.79.8c1.43.51 2.68 1.26 3 2.9A4.38 4.38 0 0 1 148 91a13.85 13.85 0 0 1-8.49 8.09 26.82 26.82 0 0 1-9.67 1.5Zm6.2-4a16.26 16.26 0 0 0 3.45-4.93 7.27 7.27 0 0 0 1-3 1.5 1.5 0 0 0-1.33-1.76 5.53 5.53 0 0 0-4.67 1 14.68 14.68 0 0 0-5.13 7.67c-.61 1.85.12 2.75 2.08 2.82h.19a6.48 6.48 0 0 0 4.37-1.8Z" class="cls-2"/><path d="M219.22 100.57a20.33 20.33 0 0 1-5.33-.49l-.48-.14c-2.86-1-3.91-3.08-2.82-5.88a13.4 13.4 0 0 1 6.84-7.26 23.33 23.33 0 0 1 10-2.18 19 19 0 0 1 6.67.77l.24.07c2.77 1.05 3.66 2.94 2.56 5.7a13.3 13.3 0 0 1-6.7 7.14 23.58 23.58 0 0 1-9.88 2.27c-.32.01-.72 0-1.1 0Zm4.42-3a10 10 0 0 0 3.36-3.4 15.48 15.48 0 0 0 2.34-4.92 1.72 1.72 0 0 0-1.54-2.38 5.77 5.77 0 0 0-4.8 1.37 15.54 15.54 0 0 0-4.63 7.15c-.69 2 .07 3 2.49 3a6.18 6.18 0 0 0 2.78-.81Z" style="fill:#fcfdfc"/><path d="M143.09 100.3c3.61-3.16 7-6.48 10.53-9.6 2.69-2.37 5.35-4.79 7.93-7.29a3.06 3.06 0 0 1 2.46-.89h5.79c0 5.93-.24 11.83-.12 17.75h-10a26.92 26.92 0 0 0 .37-4.09c0-.32-.12-.38-.41-.38h-6.94a.83.83 0 0 0-.62.25c-1.4 1.39-3 2.59-4.26 4.11-.14.16-.3.13-.46.13Zm17.45-12.11-5.11 4.93h4.4c.2 0 .39 0 .42-.26.14-1.54.29-3.08.43-4.62Z" class="cls-2"/><path d="M245.72 85.94a3.32 3.32 0 1 1-3.31-3.23 3.25 3.25 0 0 1 3.31 3.23Zm-5.82 0a2.51 2.51 0 0 0 2.53 2.58 2.47 2.47 0 0 0 2.46-2.52 2.5 2.5 0 1 0-5 0Zm2 1.7h-.75V84.4a6.41 6.41 0 0 1 1.24-.1 2 2 0 0 1 1.12.24.9.9 0 0 1 .32.71.83.83 0 0 1-.67.75 1 1 0 0 1 .59.79 3 3 0 0 0 .23.81h-.8a2.83 2.83 0 0 1-.26-.79c-.06-.36-.26-.51-.67-.51h-.35Zm0-1.84h.35c.41 0 .75-.13.75-.47s-.22-.49-.69-.49a1.65 1.65 0 0 0-.41 0Z" style="fill:#fff"/></svg>