<svg xmlns="http://www.w3.org/2000/svg" viewBox="0 0 128 40"><defs><style>.cls-1{fill:#1d9948}</style></defs><g id="GMshge.tif"><path d="M15.7 38a8.37 8.37 0 0 1 2-3.06c2.18-2.67 4.38-5.33 6.56-8a.9.9 0 0 1 .75-.4h11a3 3 0 0 1-.2.34C34.85 28 34 29.1 33 30.18a1 1 0 0 1-.68.32h-6.3a.85.85 0 0 0-.77.36c-.3.4-.6.76-1 1.24h7.2c-.7.83-1.28 1.57-1.9 2.28a.7.7 0 0 1-.48.12h-6.3a1.4 1.4 0 0 0-1.15 1c0 .34.17.5.48.52s.6 0 .9 0h5.24c-.1.16-.18.28-.26.38-.9 1.1-1.8 2.18-2.7 3.28a.84.84 0 0 1-.72.34h-6a2.68 2.68 0 0 1-2.85-1.83z" class="cls-1"/><path d="M70.15 18.35a9.3 9.3 0 0 0-.1-1.35 3.4 3.4 0 0 0-1.65-2.12 13.74 13.74 0 0 0-4.87-1.72 58.62 58.62 0 0 0-9.15-.9 20.62 20.62 0 0 1-7.26-1.4 7.4 7.4 0 0 1-1.75-1 2 2 0 0 1-.24-3.24A9.87 9.87 0 0 1 47.5 4.9a23.37 23.37 0 0 1 7.08-2.18 65 65 0 0 1 21.55-.1 20.6 20.6 0 0 1 7.18 2.3 9 9 0 0 1 2.1 1.7 3.1 3.1 0 0 1 .37 3.8 9.1 9.1 0 0 1-3.17 3.12A31.6 31.6 0 0 1 74.93 17c-1.43.47-2.9.86-4.34 1.28zm-8.42 3.1c2.77-.6 5.65-1.2 8.5-1.9a48.3 48.3 0 0 0 11.65-4.4 17.55 17.55 0 0 0 4.77-3.6 10.1 10.1 0 0 0 1.23-1.7 4.78 4.78 0 0 0-1.23-6.45A11.24 11.24 0 0 0 80.8 1C79.34.85 77.86.83 76.38.73c1.06-.16 2.14-.36 3.22-.5a21.65 21.65 0 0 1 8 .27 14.1 14.1 0 0 1 3.37 1.27c3.57 2 4.45 5.53 2.3 9a15.13 15.13 0 0 1-5.1 4.83 33.7 33.7 0 0 1-9.6 3.9 68.46 68.46 0 0 1-16.77 1.94zM56 .8c-2.12.42-4.1.74-6.07 1.2a17.4 17.4 0 0 0-6.54 2.76 8.33 8.33 0 0 0-1.8 1.8 2.87 2.87 0 0 0 .4 3.95 8.6 8.6 0 0 0 4 2.1 29.05 29.05 0 0 0 8.22.78 32.58 32.58 0 0 1 8.57.77 7.4 7.4 0 0 1 4 2.16 12 12 0 0 1 .8 1.2c-.84-.33-1.5-.65-2.2-.9a23.36 23.36 0 0 0-7.53-1.1c-2.5 0-5 .16-7.53.2a27.54 27.54 0 0 1-10.87-1.6 10.2 10.2 0 0 1-3.14-1.86c-2.33-2.1-2.35-4.82-.06-7a13.46 13.46 0 0 1 5.17-2.86A35.77 35.77 0 0 1 52.1.8H56z" style="fill:#eb1c25"/><path d="M100.15 40c.84-1 1.62-2 2.37-2.9a3.52 3.52 0 0 0 .52-.84c.2-.47-.05-.8-.56-.84h-.76a.78.78 0 0 0-.73.33c-1.1 1.32-2.18 2.63-3.25 4A.84.84 0 0 1 97 40h-3.92c.16-.22.25-.36.36-.5q5.18-6.3 10.35-12.6a.93.93 0 0 1 .8-.4h6.23a4.78 4.78 0 0 1 1.22.18 1.48 1.48 0 0 1 1.2 1.87 5.22 5.22 0 0 1-3.6 4.15 5.3 5.3 0 0 1-1.14.15.66.66 0 0 0 0 .2 2.7 2.7 0 0 1-.57 3.06c-1 1.15-1.93 2.34-2.88 3.5a.92.92 0 0 1-.8.4h-3.64zm3.2-7.1h2.43a.37.37 0 0 0 .25-.08 17.84 17.84 0 0 0 1.2-1.53c.3-.44.1-.7-.4-.74s-.86 0-1.3 0a.57.57 0 0 0-.37.14c-.6.64-1.16 1.3-1.83 2.16zm-43.03 6.96 3.23-3.94a10.83 10.83 0 0 1-1.4 0 1.93 1.93 0 0 0-2 .94c-.7 1-1.5 1.85-2.26 2.78a.88.88 0 0 1-.8.36h-3.77c.17-.23.28-.38.4-.52Q58.85 33.18 64 26.9a.93.93 0 0 1 .8-.4h6.15a2.24 2.24 0 0 1 2.27 1.67A2.74 2.74 0 0 1 73 29.5a6.06 6.06 0 0 1-.86 1.3c-2.4 2.95-4.82 5.88-7.23 8.83a.87.87 0 0 1-.74.38h-3.76zm3.17-7.13.05.12h2.28a.37.37 0 0 0 .26-.1c.45-.56.9-1.12 1.33-1.7.2-.3 0-.52-.3-.53h-1.65a.37.37 0 0 0-.26.1c-.6.7-1.17 1.38-1.75 2.12zM49.25 26.5l-3.3 4q-3.68 4.5-7.37 9a1.15 1.15 0 0 1-1 .5h-6.27a2.54 2.54 0 0 1-1.6-.55 1.63 1.63 0 0 1-.6-1.95 6.22 6.22 0 0 1 .9-1.76c2.43-3 4.9-6 7.36-9a.72.72 0 0 1 .45-.26h4l-.3.4-6.58 8a2.13 2.13 0 0 0-.28.4c-.18.33 0 .62.33.65a11.1 11.1 0 0 0 1.7 0c.2 0 .37-.24.5-.4q3.58-4.34 7.14-8.7a.83.83 0 0 1 .72-.36c1.36.05 2.7.04 4.15.04zm45.84 0L92.25 30c-1.36 1.66-2.73 3.3-4.08 5-.14.17-.3.52-.2.65s.42.24.65.35h.1a2 2 0 0 0 2-.92c2.2-2.78 4.48-5.5 6.74-8.22a1 1 0 0 1 .67-.33h3.8a3.8 3.8 0 0 1-.23.36q-5.25 6.4-10.5 12.76a1 1 0 0 1-.7.32h-6.2a2.16 2.16 0 0 1-.5-.07c-1.75-.43-2.25-1.57-1.2-3s2.17-2.73 3.27-4.1c1.6-2 3.23-3.9 4.83-5.9a.92.92 0 0 1 .8-.36c1.22-.03 2.36-.05 3.64-.05zm-32.7.06-1.35 1.67c-.52.64-1.07 1.27-1.57 1.92a.9.9 0 0 1-.8.37h-6a.93.93 0 0 0-.82.37c-1.13 1.4-2.28 2.76-3.4 4.16-.15.17-.28.5-.2.66a.83.83 0 0 0 .64.27h5.7c-.1.16-.16.27-.25.37-.9 1.1-1.78 2.2-2.7 3.27A1 1 0 0 1 51 40h-6.3a2.9 2.9 0 0 1-2-.85 1.28 1.28 0 0 1-.4-1.43 6.62 6.62 0 0 1 .95-1.72c2.48-3.07 5-6.1 7.5-9.14a.82.82 0 0 1 .56-.28h10.9zm26.4 0c-1.1 1.3-2.1 2.56-3.13 3.78a.68.68 0 0 1-.46.16h-2.4a.87.87 0 0 0-.78.36c-2.35 2.9-4.73 5.77-7.1 8.67a1.1 1.1 0 0 1-1 .47h-4l7.77-9.45h-3.3l.77-.94c.77-.9 1.52-1.85 2.3-2.8a.78.78 0 0 1 .5-.25h10.55a2 2 0 0 1 .27.03z" class="cls-1"/></g></svg>